<svg width="222" height="256" viewBox="0 0 222 256" fill="none" xmlns="http://www.w3.org/2000/svg">
<path d="M179.5 67L152 83.5V116.5L179.5 133L207.5 116.5V83.5L179.5 67Z" fill="#58D400"/>
<path d="M67.5 58L40 74.5V107.5L67.5 124L95.5 107.5V74.5L67.5 58Z" fill="#58D400"/>
<path d="M84.5 1L57 17.5V50.5L84.5 67L112.5 50.5V17.5L84.5 1Z" stroke="#A9A9A9"/>
<path d="M165.5 174L138 190.5V223.5L165.5 240L193.5 223.5V190.5L165.5 174Z" stroke="#A9A9A9"/>
<path d="M28.5 100L1 116.5V149.5L28.5 166L56.5 149.5V116.5L28.5 100Z" stroke="#A9A9A9"/>
<path d="M123.5 80L96 96.5V129.5L123.5 146L151.5 129.5V96.5L123.5 80Z" fill="#545454"/>
<path d="M198.5 12L171 28.5V61.5L198.5 78L226.5 61.5V28.5L198.5 12Z" fill="#BFF517"/>
<path d="M193.5 124L166 140.5V173.5L193.5 190L221.5 173.5V140.5L193.5 124Z" fill="#BFF517"/>
<path d="M109.5 190L82 206.5V239.5L109.5 256L137.5 239.5V206.5L109.5 190Z" fill="#BFF517"/>
</svg>
